<svg width="812" height="570" viewBox="0 0 812 570" fill="none" xmlns="http://www.w3.org/2000/svg">
<path d="M110.623 464.551H120.87V568.255H110.623V559.993C107.217 564.392 100.806 569.945 90.4245 569.945C75.4832 569.945 61.6953 559.429 61.6953 538.64C61.6953 517.851 75.3491 507.765 90.4245 507.765C101.798 507.765 107.914 514.015 110.623 517.583V464.524V464.551ZM72.2106 538.667C72.2106 551.328 79.3191 560.851 91.5511 560.851C103.783 560.851 111.187 550.47 111.187 538.801C111.187 523.592 100.671 516.912 91.5511 516.912C81.4382 516.912 72.2106 524.316 72.2106 538.667Z" fill="#7180FB"/>
<path d="M182.645 509.212H192.892V568.253H182.645V559.991C179.238 564.39 172.827 569.943 162.446 569.943C147.505 569.943 133.717 559.428 133.717 538.639C133.717 517.85 147.371 507.764 162.446 507.764C173.82 507.764 179.936 514.014 182.645 517.581V509.185V509.212ZM144.232 538.666C144.232 551.327 151.341 560.85 163.573 560.85C175.805 560.85 183.208 550.468 183.208 538.8C183.208 523.59 172.693 516.911 163.573 516.911C153.46 516.911 144.232 524.314 144.232 538.666Z" fill="#7180FB"/>
<path d="M210.249 508.866H220.496V515.679C222.347 513.265 227.605 507.417 237.423 507.417C244.397 507.417 250.781 510.26 254.349 515.518C257.327 519.917 257.756 524.773 257.756 531.291V567.853H247.509V531.586C247.509 528.018 247.214 523.914 244.8 520.776C242.815 518.227 239.676 516.511 235.116 516.511C231.548 516.511 227.712 517.503 224.735 521.071C220.765 525.765 220.47 532.739 220.47 537.005V567.88H210.223V508.839L210.249 508.866Z" fill="#7180FB"/>
<path d="M321.573 524.59C316.154 517.777 308.348 515.765 303.091 515.765C292.146 515.765 282.168 523.437 282.168 537.815C282.168 552.193 292.415 559.73 302.93 559.73C309.046 559.73 316.584 557.021 322.002 550.476V562.708C315.591 567.402 308.778 568.824 303.225 568.824C284.877 568.824 271.652 555.734 271.652 537.949C271.652 520.164 285.011 506.671 303.225 506.671C312.613 506.671 318.729 510.373 321.573 512.358V524.59Z" fill="#7180FB"/>
<path d="M389.195 552.032C387.478 555.304 384.93 558.872 381.952 561.555C376.534 566.383 369.854 568.824 362.317 568.824C348.099 568.824 333.158 559.865 333.158 537.949C333.158 520.298 343.969 506.671 361.753 506.671C373.288 506.671 380.531 512.358 384.071 517.482C387.773 522.739 389.892 531.86 389.624 539.666H343.673C343.808 551.898 352.204 559.73 362.451 559.73C367.279 559.73 371.115 558.309 374.549 555.465C377.258 553.185 379.377 550.208 380.665 547.364L389.195 552.059V552.032ZM379.082 531.109C377.365 521.854 370.418 515.738 361.726 515.738C353.035 515.738 345.927 522.283 344.371 531.109H379.082Z" fill="#7180FB"/>
<path d="M467.199 522.866C465.777 519.459 462.8 516.884 458.937 516.884C455.074 516.884 451.829 519.003 451.829 523.563C451.829 527.829 454.672 529.116 461.351 531.959C469.882 535.527 473.878 538.21 476.159 541.053C478.707 544.192 479.297 547.303 479.297 550.576C479.297 562.942 470.338 569.916 458.964 569.916C456.55 569.916 443.325 569.621 438.336 554.841L447.161 551.139C448.288 554.251 451.721 560.823 459.098 560.823C465.777 560.823 468.782 555.833 468.782 551.434C468.782 545.881 464.812 544.031 459.259 541.616C452.151 538.505 447.59 536.225 444.881 532.952C442.601 530.109 442.172 527.265 442.172 524.261C442.172 513.88 449.414 507.764 459.393 507.764C462.532 507.764 470.928 508.327 475.622 518.44L467.226 522.839L467.199 522.866Z" fill="#7180FB"/>
<path d="M504.056 518.604V568.257H493.809V518.604H487.559V509.216H493.809V487.89H504.056V509.216H514.303V518.604H504.056Z" fill="#7180FB"/>
<path d="M537.694 543.658C537.694 547.789 537.694 552.618 540.538 556.319C542.094 558.304 545.232 560.88 550.919 560.88C556.606 560.88 559.744 558.304 561.3 556.319C564.143 552.618 564.143 547.789 564.143 543.658V509.242H574.39V544.812C574.39 552.081 573.666 557.473 568.972 562.596C563.714 568.149 556.74 570 550.919 570C545.098 570 538.124 568.149 532.866 562.596C528.172 557.473 527.447 552.081 527.447 544.812V509.242H537.694V543.658Z" fill="#7180FB"/>
<path d="M634.985 464.551H645.232V568.255H634.985V559.993C631.578 564.392 625.167 569.945 614.786 569.945C599.845 569.945 586.057 559.429 586.057 538.64C586.057 517.851 599.71 507.765 614.786 507.765C626.16 507.765 632.276 514.015 634.985 517.583V464.524V464.551ZM596.599 538.667C596.599 551.328 603.707 560.851 615.939 560.851C628.171 560.851 635.575 550.47 635.575 538.801C635.575 523.592 625.06 516.912 615.939 516.912C605.826 516.912 596.599 524.316 596.599 538.667Z" fill="#7180FB"/>
<path d="M668.271 479.628C672.241 479.628 675.514 482.901 675.514 486.898C675.514 490.895 672.241 494.141 668.271 494.141C664.301 494.141 661.002 490.868 661.002 486.898C661.002 482.928 664.275 479.628 668.271 479.628ZM673.395 509.216V568.257H663.148V509.216H673.395Z" fill="#7180FB"/>
<path d="M689.043 538.967C689.043 521.048 702.267 507.824 720.347 507.824C738.427 507.824 751.652 521.048 751.652 538.967C751.652 556.886 738.293 569.976 720.347 569.976C702.402 569.976 689.043 556.886 689.043 538.967ZM699.558 538.967C699.558 553.479 709.805 560.883 720.32 560.883C730.836 560.883 741.083 553.345 741.083 538.967C741.083 524.589 731.131 516.917 720.32 516.917C709.51 516.917 699.558 524.589 699.558 538.967Z" fill="#7180FB"/>
<path d="M796.665 207.438C786.74 194.508 769.625 188.07 745.296 188.07H684.94C671.823 188.07 661.737 192.014 654.628 199.873C647.52 207.733 643.979 218.033 643.979 230.748C643.979 243.463 647.52 253.871 654.628 261.918C661.71 269.939 671.742 273.936 684.752 273.963H736.47C750.231 273.963 761.39 285.122 761.39 298.883C761.39 312.644 750.231 323.803 736.47 323.803H664.178C636.012 325.547 602.481 316.668 577.427 294.752C517.259 242.095 560.286 166.342 560.286 166.342H560.313C563.666 159.234 568.119 152.796 573.779 147.109C587.62 133.268 606.532 126.347 630.486 126.347C649.183 126.347 659.698 126.803 673.754 130.746C687.784 134.663 702.296 136.648 717.264 136.648C734.861 136.648 748.702 130.558 758.815 118.407C768.928 106.255 773.971 90.8043 773.971 72.0807C773.971 47.7508 762.195 29.4296 738.616 17.0634C715.037 4.72409 687.033 0.0297852 642.879 0.0297852C604.708 0.0297852 570.748 8.56001 540.999 25.5668C511.251 42.6004 487.86 67.0109 470.826 98.8248C453.792 130.639 445.289 168.435 445.289 212.212C445.289 255.99 453.712 292.874 470.558 322.81C487.404 352.747 510.5 375.306 539.873 390.462C569.246 405.618 602.267 413.209 638.963 413.209C639.607 413.209 640.224 413.156 640.867 413.156V413.209H662.89C681.399 413.209 696.394 412.405 696.394 393.896C696.394 390.703 698.996 388.102 702.188 388.102C705.38 388.102 707.982 390.703 707.982 393.896C707.982 412.405 722.978 413.209 741.487 413.209H759.244V413.022C774.186 412.136 786.418 407.174 795.86 398.053C806.322 387.941 811.579 373.16 811.579 353.712V265.03C811.579 239.574 806.617 220.394 796.692 207.491L796.665 207.438Z" fill="url(#paint0_linear_2064_46)"/>
<path d="M427.075 328.87C400.009 259.555 399.016 182.756 424.312 112.771L428.04 102.47C434.559 84.4439 435.498 64.5132 428.818 46.5407C424.902 35.945 419 27.227 411.141 20.4404C395.448 6.81345 376.618 0 354.675 0C333.859 0 315.994 6.81345 301.053 20.4404C286.111 34.0673 275.221 55.6343 268.434 85.1413L225.81 270.338C224.844 274.55 221.088 277.527 216.77 277.527C212.451 277.527 208.695 274.55 207.73 270.338L165.105 85.1413C158.292 55.6343 147.616 34.0673 133.05 20.4404C118.484 6.81345 100.78 0 79.991 0C58.0485 0 39.2176 6.81345 23.5252 20.4404C7.83279 34.0404 0 55.2587 0 83.9879V348.452C0 368.114 4.72113 383.833 14.1902 395.556C23.6325 407.278 38.1982 413.153 57.8875 413.153C77.5768 413.153 91.2841 407.305 101.29 395.556C111.322 383.833 116.338 368.141 116.338 348.452V195.793C116.338 192.011 116.902 188.523 118.055 185.278C119.182 182.059 121.65 180.449 125.432 180.449C129.214 180.449 131.87 182.059 133.372 185.278C134.874 188.497 135.813 192.011 136.215 195.793L158.346 338.795C160.626 354.326 163.55 367.658 167.144 378.817C170.739 389.976 176.425 398.48 184.178 404.354C191.93 410.229 202.794 413.153 216.797 413.153C230.799 413.153 242.146 410.229 249.71 404.354C257.275 398.506 262.854 389.976 266.449 378.817C270.043 367.658 273.155 354.326 275.811 338.795L297.378 195.793C298.129 192.011 299.255 188.523 300.784 185.278C302.287 182.059 304.754 180.449 308.161 180.449C312.319 180.449 314.867 182.059 315.833 185.278C316.772 188.497 317.255 192.011 317.255 195.793V348.452C317.255 368.114 322.351 383.833 332.572 395.556C342.792 407.278 357.358 413.153 376.269 413.153C395.18 413.153 410.604 407.305 420.261 395.556C423.48 391.639 426.163 387.294 428.309 382.519C435.363 366.719 434.773 348.532 428.47 332.411L427.075 328.87Z" fill="url(#paint1_linear_2064_46)"/>
<defs>
<linearGradient id="paint0_linear_2064_46" x1="476.387" y1="413.209" x2="613.477" y2="-49.4548" gradientUnits="userSpaceOnUse">
<stop stop-color="#5E70E6"/>
<stop offset="1" stop-color="#858FFB"/>
</linearGradient>
<linearGradient id="paint1_linear_2064_46" x1="36.795" y1="413.153" x2="155.379" y2="-60.4054" gradientUnits="userSpaceOnUse">
<stop stop-color="#5E70E6"/>
<stop offset="1" stop-color="#858FFB"/>
</linearGradient>
</defs>
</svg>
